<?xml version="1.0"?>
<svg id="Layer_1" data-name="Layer 1" xmlns="http://www.w3.org/2000/svg" viewBox="0 0 595.28 308.43">
  <defs></defs>
  <path class="cls-2" fill="#0B3752" d="m345.3,57.17h2.21c.16.35.39.63.41.92.07,1.08.11,2.17.11,3.25,0,63.43,0,126.87,0,190.3,0,1.39.18,2.81-.36,4.31h-2.14c-.16-.44-.36-.74-.37-1.04-.04-65.17-.06-130.34-.07-195.51,0-.63.12-1.27.21-2.23Z"></path>
  <path class="cls-2" fill="#0B3752" d="m463.25,150.9c-1.56,3.42-2.6,7.05-3.97,10.54-1.38,3.53-2.7,7.08-4.09,10.74h-2.61c-.19-.29-.43-.54-.53-.83-2.1-6.05-4.18-12.1-6.27-18.15-.23-.67-.54-1.32-1.11-2.72-.72,4.26-.55,7.79-.87,11.27-.32,3.43-.26,6.89-.91,10.43h-2.78c-.11-.47-.35-.98-.33-1.48.16-2.92.37-5.84.57-8.76.32-4.65.65-9.3.95-13.95.07-1.09.13-2.15.9-3.2h3.91c1.64,3.4,2.72,7.04,4.03,10.57,1.28,3.45,2.39,6.97,3.57,10.45.98.18.98-.62,1.18-1.17,2.23-6.12,4.44-12.24,6.67-18.35.18-.5.47-.96.76-1.52h3.76c.9.69.93,1.58.98,2.44.28,4.87.52,9.75.82,14.62.13,2.16.4,4.32.52,6.48.07,1.28.25,2.59-.28,3.87h-2.96c-.71-3.68-.45-7.27-.78-10.81-.32-3.44-.34-6.92-.49-10.38-.22-.03-.43-.07-.65-.1Z"></path>
  <path class="cls-2" fill="#0B3752" d="m504.77,105.06c.39-1.86.22-3.23.25-4.58.03-1.3,0-2.6,0-3.91,0-1.41,0-2.82,0-4.23,0-1.3-.01-2.6,0-3.91.01-1.39.05-2.79.08-4.29.58-.12.98-.24,1.38-.27.43-.02.86.06,1.32.09.14.31.35.6.37.89.07.97.09,1.95.09,2.93,0,6.62,0,13.24,0,19.86,0,1.08,0,2.16,0,3.18-2.62,1.13-3.44.98-4.72-1.04-3.8-5.94-7.55-11.91-11.32-17.86-.34-.54-.71-1.06-1.05-1.58-1,.25-.77,1.02-.77,1.59-.03,5.1-.02,10.2-.02,15.3,0,1.19,0,2.38,0,3.39-1.03,1.26-2.05.84-3.02.61-.52-2.72-.55-24.2-.05-27.13,1.22-.46,2.49-.3,3.9-.11,2.22,3.4,4.49,6.84,6.72,10.3,2.21,3.43,4.37,6.88,6.84,10.76Z"></path>
  <path class="cls-2" fill="#0B3752" d="m395.32,206.02h2.88c.11.75.26,1.38.28,2.01.28,8.74.12,22.32-.32,25.23-.54.1-1.14.23-1.76.32-1.23.17-2.03-.44-2.66-1.45-1.15-1.84-2.38-3.63-3.53-5.47-2.77-4.41-5.51-8.84-8.28-13.25-.22-.36-.52-.67-.75-.98-.89.13-.72.77-.72,1.25-.02,5.43,0,10.86-.02,16.29,0,1.07-.08,2.13-.14,3.4-.98.06-1.79.11-2.59.16-.2-.44-.42-.73-.44-1.02-.06-1.3-.07-2.6-.07-3.91,0-6.41,0-12.81,0-19.22,0-1.06.09-2.13.15-3.35,1.25-.06,2.3-.11,3.46-.17,2.73,3.15,4.65,6.81,6.94,10.21,2.3,3.41,4.42,6.94,6.65,10.46.99-.37.66-1.25.65-1.92-.03-5.1-.13-10.2-.17-15.3,0-1.06-.26-2.17.44-3.28Z"></path>
  <path class="cls-2" fill="#0B3752" d="m405.56,233.35c-.15-.45-.34-.74-.35-1.04-.03-8.04-.05-16.08-.05-24.12,0-.53.13-1.06.19-1.57.37-.19.64-.41.94-.45,4.54-.64,9.09-.89,13.56.41,4.31,1.25,7.06,4.07,8.18,8.46.83,3.26.63,6.47-.39,9.63-1.33,4.13-4.17,6.8-8.3,8.06-4.55,1.38-9.16,1.3-13.79.63Zm3.89-2.68c1.99,0,3.85.18,5.66-.04,4.07-.47,7.14-2.47,8.65-6.43,1.15-3.03,1.27-6.14.26-9.23-.63-1.91-1.81-3.44-3.5-4.57-2.83-1.88-7.78-2.39-11.21-1.14-.46,3.01-.41,18.49.14,21.41Z"></path>
  <path class="cls-2" fill="#0B3752" d="m448.57,84.21c4.47-.84,8.77-1.05,13.03-.07,5.52,1.27,8.86,4.64,9.73,10.38.58,3.8-.1,7.33-1.93,10.65-1.36,2.47-3.48,4.1-6.11,5.09-3.09,1.16-6.31,1.5-9.57,1.45-1.71-.02-3.41-.27-5.06-.4-.46-2.61-.53-23.47-.1-27.09Zm3.71,24.09c3.45.69,6.31.53,8.94-.55,2.63-1.08,4.55-2.94,5.53-5.62,1.03-2.81,1.27-5.69.44-8.61-.68-2.41-2.05-4.31-4.27-5.48-3.39-1.79-6.94-2.19-10.68-1.11-.11.52-.28.94-.28,1.35,0,6.39,0,12.78.03,19.17,0,.3.2.59.29.85Z"></path>
  <path class="cls-2" fill="#0B3752" d="m367.02,111.25c-.51-3.3-.46-24.36.06-27.05,3.99-.83,8.02-1.12,12.04.23,3.98,1.33,5.16,5.32,3.99,8.04-.33.78-.84,1.51-1.4,2.15-.56.64-1.28,1.15-2.08,1.85.85.62,1.62,1.14,2.36,1.71,4.2,3.23,2.79,9.98-1.14,11.81-.88.41-1.78.84-2.71,1.05-3.62.81-7.27.86-11.12.21Zm3.74-12.88c-.75,2.35-.8,7.14-.14,9.94,1.96.42,4.16.59,5.42.22.92-.27,1.88-.63,2.65-1.18,2.69-1.92,2.61-5.91-.15-7.74-2.4-1.59-5.06-1.7-7.78-1.23Zm-.22-2.92c1.5,0,2.71.15,3.86-.04,1.15-.19,2.32-.59,3.34-1.15,1.45-.8,2.02-2.19,1.93-3.86-.1-1.73-1.11-2.77-2.59-3.43-1.75-.79-3.59-.76-5.44-.56-.72.08-1.27.51-1.32,1.22-.16,2.47-.33,4.95.23,7.83Z"></path>
  <path class="cls-2" fill="#0B3752" d="m536.75,110.16c-3.91,1.27-7.6,1.89-11.44,1.39-8.41-1.11-11.96-7.09-11.85-14.13,0-.43.08-.86.11-1.3.47-5.82,3.59-9.64,8.97-11.61,3.88-1.42,7.87-1.32,11.84-.27.4.11.76.37,1.3.64-.2.83-.38,1.62-.56,2.38-2.33-.26-4.45-.59-6.58-.69-1.17-.05-2.39.15-3.52.46-4.3,1.19-6.82,4.09-7.5,8.46-.36,2.26-.19,4.54.63,6.73.79,2.11,2.09,3.81,4.06,4.9,3.41,1.89,6.98,2.01,10.74.89.35-2.71.45-5.25-.06-7.96-1.71-.1-3.3-.19-4.78-.27-.93-.79-.75-1.63-.44-2.71,2.81-.44,5.7-.16,8.58-.18.21.39.48.67.49.94.03,4,.02,8,.02,12.33Z"></path>
  <path class="cls-2" fill="#0B3752" d="m391.92,144.8h2.7c.19.38.45.66.46.94.06,2.17.07,4.33.11,6.5.02,1.18.05,2.36.08,3.6,2.35.87,4.63.38,6.86.45,2.14.06,4.3.15,6.49-.13.9-3.8-.08-7.52.69-11.31.91-.06,1.73-.11,2.55-.17.22.38.47.64.52.93.1.64.13,1.29.13,1.94,0,7.38,0,14.75,0,22.13,0,.74-.11,1.49-.17,2.18-.97.75-1.89.55-3.01.25-.1-.68-.29-1.4-.3-2.13-.04-2.49,0-4.99-.03-7.48-.01-.96.19-1.97-.5-2.81-2.83-.47-10.33-.43-13.06.1-.69,3.98.14,8.11-.5,12.36-1,.09-1.92.17-2.94.25-.17-.55-.37-.93-.4-1.34-.27-3.53-.05-23.93.31-26.27Z"></path>
  <path class="cls-2" fill="#0B3752" d="m541.22,160.69c-.67,3.82.03,7.52-.46,11.12-.88.83-1.83.55-2.94.35-.12-.57-.37-1.18-.37-1.79-.03-7.81-.02-15.61,0-23.42,0-.52.15-1.05.24-1.7,4.04-.91,8.02-1.04,11.92.01,5.52,1.48,7.07,8.17,2.92,12.14-.62.59-1.33,1.09-2.13,1.74.41.52.84.97,1.17,1.49.58.9,1.31,1.78,1.62,2.78.86,2.78,1.53,5.63,2.28,8.5-1.14.71-2.17.46-3.4.27-.26-.62-.62-1.28-.82-1.97-.5-1.77-.87-3.58-1.39-5.34-.91-3.07-2.47-4.25-5.66-4.34-.95-.03-1.9.09-2.98.15Zm.17-13.1c-.63,3.34-.61,7.27,0,9.82,2.18.37,4.4.59,6.57-.32,2.8-1.17,3.95-4.29,2.57-6.95-.82-1.58-2.3-2.32-3.93-2.51-1.68-.2-3.41-.04-5.22-.04Z"></path>
  <path class="cls-2" fill="#0B3752" d="m503.02,206.32c4.15-.76,8-1.06,11.84-.04,1.02.27,2.06.76,2.89,1.41,3.09,2.4,3.38,7.56.63,10.42-.74.77-1.62,1.41-2.61,2.25,2.28,1.82,3.17,4.29,3.76,6.96.41,1.89.97,3.75,1.49,5.74-.99.82-2.05.47-3.04.42-1.08-.7-1.16-1.86-1.46-2.86-.41-1.35-.65-2.74-1.01-4.1-.95-3.64-2.52-4.89-6.22-4.88-.84,0-1.68.15-2.69.25-.51,2.02-.2,3.97-.27,5.88-.07,1.82.12,3.65-.22,5.63-.98.06-1.81.1-2.61.15-.24-.39-.51-.64-.55-.93-.11-.75-.16-1.51-.16-2.26-.01-7.05-.01-14.09,0-21.14,0-.85.12-1.7.22-2.89Zm3.56,12.5c1.71,0,3.11.13,4.48-.04,1.04-.13,2.12-.48,3.04-.99,1.72-.97,2.67-2.53,2.51-4.54-.16-2-1.25-3.44-3.13-4.14-2.27-.84-4.58-1.2-7.08.12-.08,3.01-.23,6.09.18,9.6Z"></path>
  <path class="cls-2" fill="#0B3752" d="m450.92,205.99h3.38c.12.64.34,1.25.34,1.86.03,4.67.08,9.35-.01,14.02-.04,1.72-.29,3.48-.73,5.15-1.02,3.95-4.48,6.6-8.6,6.76-.98.04-1.96-.02-2.93,0-3.04.08-6.77-1.77-8.09-6.37-.41-1.45-.68-2.98-.71-4.48-.08-5.11-.03-10.22-.01-15.32,0-.42.12-.84.18-1.27,1.06-.75,2.07-.42,3.25-.28.06,1.1.16,2.06.16,3.02.02,3.91-.05,7.83.04,11.74.04,1.72.18,3.49.61,5.16,1.24,4.86,5.52,5.8,8.53,4.66,1.73-.65,2.89-1.9,3.59-3.57.64-1.52.9-3.11.89-4.77-.04-4.24-.02-8.48,0-12.72,0-1.07.06-2.15.11-3.59Z"></path>
  <path class="cls-2" fill="#0B3752" d="m390.17,84.02c.9-.06,1.83-.12,2.95-.19.13.88.32,1.6.32,2.32.03,4.45-.04,8.91.05,13.36.03,1.61.24,3.26.68,4.81.96,3.38,3.45,4.63,5.99,4.58,3.32-.06,5.27-1.49,6.27-4.69.48-1.52.59-3.2.62-4.82.08-4.02.02-8.04.04-12.06,0-1.06.11-2.12.18-3.34,1.05-.05,1.88-.09,2.72-.14.2.38.46.65.47.93.07,2.06.11,4.12.12,6.18.02,3.26.02,6.52,0,9.78,0,.97-.04,1.96-.19,2.92-.8,4.78-4.37,7.92-9.21,8.06-1.62.05-3.23.08-4.84-.42-2.56-.8-4.44-2.33-5.35-4.83-.55-1.51-1.06-3.13-1.1-4.72-.13-5.54-.04-11.08-.02-16.62,0-.31.16-.62.3-1.13Z"></path>
  <path class="cls-2" fill="#0B3752" d="m423.13,156.3c3.35.79,6.87-.12,10.15.53.72.76.64,1.45.12,2.39-3.27.4-6.74-.12-10.28.32-.63,3.14-.24,6.15-.3,9.28.73.19,1.32.46,1.92.47,2.39.05,4.78.02,7.17.04.96,0,1.92.08,3.09.13.04.94.08,1.74.11,2.51-2.49.49-11.68.59-15.54.18-.12-.46-.37-.97-.37-1.47-.02-8.15-.01-16.29,0-24.44,0-.32.11-.64.17-1.01.25-.16.51-.45.79-.47,4.65-.23,9.3-.12,14.16-.09.1,1,.19,1.8.28,2.73-3.84.67-7.54-.04-11.21.47-1.03,1.26-.54,2.73-.58,4.08-.04,1.39-.24,2.81.32,4.34Z"></path>
  <path class="cls-2" fill="#0B3752" d="m494.4,170.94c.22-.72.46-1.51.76-2.5,1.3.36,2.43.64,3.54.99,2.15.68,4.29.69,6.35-.25,2.04-.93,3.02-3.04,2.48-5.12-.35-1.35-1.26-2.29-2.39-2.97-.92-.56-1.97-.9-2.94-1.37-1.37-.66-2.79-1.23-4.07-2.03-5.11-3.18-4.04-10.17,1.02-12.31,3.56-1.5,7.17-1.31,10.95.19-.2.91-.37,1.71-.54,2.5-.49.07-.85.23-1.11.14-1.77-.66-3.61-.85-5.45-.65-.93.1-1.93.4-2.72.9-2.01,1.27-2.23,3.87-.62,5.63,1.14,1.25,2.68,1.8,4.15,2.5,1.47.69,2.92,1.43,4.35,2.18,4.24,2.21,4.77,10.1-.86,12.89-2.88,1.43-8.53,2.15-12.92-.71Z"></path>
  <path class="cls-2" fill="#0B3752" d="m475.43,206.55c.27,1.28-.02,2.14-.84,2.87-1.15-.29-2.3-.56-3.43-.87-1.54-.42-3.02-.15-4.45.43-2.59,1.04-3.84,4.39-.89,6.79.98.8,2.27,1.23,3.43,1.81,1.45.72,2.98,1.32,4.36,2.15,2.58,1.55,3.57,3.98,3.35,6.92-.23,2.99-1.85,5.05-4.51,6.26-3.37,1.54-8.7,1.17-12.24-.75-.35-1.02,0-1.85.72-2.58,1.81.44,3.58.86,5.35,1.29,1.44.35,2.82-.02,4.1-.59,3.33-1.47,3.86-5.43.97-7.64-1.1-.84-2.48-1.3-3.72-1.95-1.62-.86-3.39-1.53-4.81-2.65-2.72-2.14-3.21-6.26-1.23-9.07.54-.77,1.3-1.48,2.12-1.95,3.85-2.27,7.8-1.88,11.72-.47Z"></path>
  <path class="cls-2" fill="#0B3752" d="m386.3,145.64c-.07.57-.07,1.01-.2,1.4-.13.39-.4.73-.57,1.01-.36.04-.59.13-.77.08-1.68-.49-3.39-.65-5.15-.63-5.84.07-9.63,3.19-10.62,8.95-.61,3.57-.06,6.98,2.33,9.82,2.7,3.2,6.35,3.96,10.33,3.49,1.18-.14,2.34-.49,3.52-.75,1.13.49,1.11,1.45.95,2.65-5.08,1.76-10.12,1.83-15.03-.76-2.29-1.21-3.91-3.1-4.9-5.48-1.33-3.19-1.66-6.51-.95-9.9,1.25-5.95,4.95-9.52,10.82-10.79,2.56-.56,5.19-.44,7.78-.01.81.13,1.57.58,2.44.91Z"></path>
  <path class="cls-2" fill="#0B3752" d="m567.46,157.77c2.55-4.7,4.76-8.76,6.93-12.78,1.3-.47,2.45-.38,3.89-.17-.24.7-.35,1.32-.64,1.81-2.38,4.01-4.75,8.01-7.21,11.97-.83,1.34-1.25,2.71-1.2,4.29.07,2.17.03,4.33,0,6.5-.01.85-.12,1.7-.18,2.53-1.13.66-2.17.5-3.4.24-.12-.59-.34-1.19-.36-1.79-.05-1.73-.02-3.47-.03-5.2q0-4.7-2.37-8.86c-1.66-2.92-3.33-5.83-4.97-8.76-.41-.74-.74-1.52-1.19-2.43,1.24-.74,2.4-.37,3.68-.4,2.57,3.97,4.44,8.35,7.04,13.05Z"></path>
  <path class="cls-2" fill="#0B3752" d="m525.25,148.04c-.14,4.23-.02,8.24-.08,12.24-.06,3.89.19,7.79-.16,11.76-1.11.51-2.15.39-3.18.17-.73-.89-.47-1.91-.48-2.85-.02-5.97,0-11.94-.02-17.91,0-1.07-.07-2.13-.12-3.29-2.74-.97-5.52,0-8.24-.74v-2.38c2.22-.76,4.49-.29,6.72-.37,2.28-.08,4.56-.04,6.84-.01,2.26.03,4.53-.14,6.97.16v2.64c-2.64.6-5.28-.11-8.24.58Z"></path>
  <path class="cls-2" fill="#0B3752" d="m486.93,233.11v-23.44c-.99-1.01-2.02-.68-2.96-.75-1.82-.13-3.67.25-5.58-.33v-2.36c2.25-.72,4.52-.28,6.75-.35,2.28-.07,4.56-.03,6.83-.01,2.26.01,4.52.05,6.95.07v2.73c-2.66.59-5.3-.11-7.74.45-.84.93-.57,1.95-.58,2.89-.03,5.97,0,11.94-.02,17.9,0,1.07-.07,2.14-.11,3.21-1.16.67-2.15.51-3.55-.02Z"></path>
  <path class="cls-2" fill="#0B3752" d="m534.25,233.48h-2.65c-.17-.33-.44-.61-.45-.89-.06-2.49-.16-4.99-.08-7.48.06-2.02-.37-3.79-1.42-5.54-2.23-3.72-4.31-7.52-6.43-11.31-.36-.64-.6-1.34-1-2.24h3.89c2.38,3.87,4.26,8.12,6.63,12.46.52-.62.91-.96,1.15-1.39,1.41-2.56,2.77-5.15,4.17-7.72.62-1.13,1.28-2.24,1.92-3.36h3.87c-.48.98-.79,1.77-1.22,2.49-2.1,3.54-4.16,7.12-6.39,10.58-1.23,1.91-1.79,3.87-1.66,6.13.12,1.95.05,3.9,0,5.86-.02.73-.2,1.45-.34,2.42Z"></path>
  <path class="cls-2" fill="#0B3752" d="m432.1,108.09c1.81.76,3.78.28,5.7.38,1.83.09,3.66.07,5.34.1.26.36.47.52.49.69.04.63.02,1.25.02,1.84-2.84.59-12.76.59-15.51,0-.11-.56-.31-1.18-.34-1.8-.34-7.08-.11-22.55.38-25.14.96-.52,2-.39,3.06-.12.72.99.46,2.1.47,3.16.02,5.86,0,11.73.02,17.59,0,1.07-.19,2.18.38,3.3Z"></path>
  <path class="cls-2" fill="#0B3752" d="m476.84,84.15c1-.53,2.03-.28,3.21-.13.1.63.23,1.14.25,1.66.25,5.2.06,23.03-.26,25.43-1.09.59-2.19.53-3.4-.01-.06-.47-.17-.88-.17-1.29.02-8.35.04-16.7.08-25.05,0-.19.18-.38.29-.6Z"></path>
  <path class="cls-2" fill="#0B3752" d="m482.88,172.2h-3.04c-.09-.78-.24-1.51-.26-2.24-.29-12.2-.14-22.25.38-25.11h2.85c.13.7.35,1.31.35,1.93.02,7.79.02,15.59,0,23.39,0,.63-.17,1.26-.29,2.04Z"></path>
  <path class="cls-2" fill="#0B3752" d="m366.89,206.02c1-.05,1.83-.09,2.8-.14.17.69.44,1.3.45,1.9.03,8.02.02,16.03,0,24.05,0,.42-.13.84-.2,1.21-.94.74-1.85.58-2.76.28-.14-.22-.34-.39-.36-.57-.08-.75-.16-1.51-.16-2.26-.01-7.15-.01-14.3,0-21.45,0-.95.13-1.9.21-3.02Z"></path>
  <path class="cls-2" fill="#0B3752" d="m420.86,111.01c-1.04.67-1.95.6-3.1.06-.34-2.14-.12-4.4-.16-6.64-.04-2.27,0-4.55,0-6.82s0-4.33,0-6.49c.01-2.26.04-4.52.06-6.67,1.02-.87,1.95-.62,3.06-.39.12.56.37,1.17.37,1.77.03,7.9.02,15.8,0,23.7,0,.52-.16,1.03-.23,1.47Z"></path>
  <g>
    <path class="cls-2" fill="#0B3752" d="m175.14,199.05c-.44-3.5-.37-57.99.07-60.66.56-.11,1.17-.32,1.78-.33,8.8-.02,17.6-.07,26.4,0,4.53.04,8.5,1.52,11.59,5.03,2.02,2.29,3.2,4.89,3.25,7.96.02,1.63.04,3.26,0,4.89-.12,5.48-2.74,9.22-7.82,11.28-.95.39-2.12.41-2.83,1.26.31.95,1.08.77,1.65.95,5.14,1.7,8.66,6.2,8.98,11.61.1,1.62.01,3.26.03,4.89.04,3.7-1.43,6.76-4.06,9.28-2.42,2.32-5.25,3.82-8.68,4.01-1.62.09-3.25.26-4.87.27-7.28.03-14.56.02-21.84,0-1.17,0-2.38.16-3.67-.45Zm14.46-6.62c3.1.23,6,.56,8.87-.22,3.03-.82,4.95-2.87,5.25-5.94.27-2.79.22-5.65-.09-8.44-.37-3.45-2-5.01-5.45-5.45-2.25-.29-4.54-.22-6.82-.24-.61,0-1.23.22-1.8.34-.41,2.8-.42,16.88.02,19.96Zm-.08-27.14c2.86.23,5.56.38,8.21-.05,3.4-.55,5.68-2.92,6.01-6.36.24-2.47.23-5,.02-7.47-.26-3.12-2.77-5.67-5.77-6.28-1.48-.3-6.51-.13-8.34.29-.47,2.34-.6,15.31-.14,19.87Z"></path>
    <path class="cls-2" fill="#0B3752" d="m279.18,185.79c.14,7.33-4.03,12.58-10.63,13.3-6.81.74-13.66.76-20.47.06-4.72-.49-8.29-3.02-10.63-7.19-.97-1.73-1.5-3.58-1.49-5.59.02-11.73.04-23.46,0-35.19-.02-4.86,3.66-10.64,9.86-12.37,1.65-.46,3.42-.69,5.14-.72,4.56-.1,9.12-.09,13.68,0,1.72.03,3.47.26,5.16.61,4.69.97,7.67,3.85,8.91,8.47.35,1.33.94,2.67.39,4.25-2.11.38-4.26.17-6.59.13-.32-.78-.64-1.55-.96-2.33-1.1-2.71-3.19-4.07-6.04-4.18-2.71-.1-5.43-.08-8.14,0-3.19.08-6.96,2.7-6.92,7.18.11,10.97.16,21.94-.03,32.91-.07,3.79,3.12,7.18,6.75,7.43,2.81.19,5.65.19,8.46,0,3.08-.21,5.29-1.78,6.18-4.91.17-.62.45-1.21.69-1.84h6.72Z"></path>
    <path class="cls-2" fill="#0B3752" d="m304.47,138.43c2.9-.5,11.31-.52,14.28-.05.51,1.06.29,2.27.29,3.43.02,11.52.01,23.03.01,34.55,0,6.41,0,12.82,0,19.23,0,1.07,0,2.15,0,3.3-2.46,1.06-4.86.56-7.18.58-2.36.02-4.76.34-7.26-.34-.1-.74-.27-1.47-.27-2.2-.01-18.91-.01-37.81,0-56.72,0-.54.08-1.07.13-1.79Z"></path>
    <path class="cls-1" fill="#0B3752" d="m81.7,106.71h0s16.95,0,16.95,0h0s-16.95,0-16.95,0Z"></path>
    <path class="cls-1" fill="#0B3752" d="m81.7,106.71h0s16.95,0,16.95,0h0s-16.95,0-16.95,0Z"></path>
    <path class="cls-2" fill="#0B3752" d="m162.68,193.31h.04v6.14h-2.92c-.81.04-1.62,0-2.43,0-33.64,0-67.24,0-100.88,0-1,0-2.02.11-3.06,0h-2.14v-6.59h.02c0-.63,0-1.25,0-1.88,0-3.08-.01-6.16-.01-9.25,0-3.24,0-6.47,0-9.71,0-6.85,0-13.69.02-20.54h17.28v30.25h76.95v-.48h0c.03-18.97.04-37.91.04-56.89h-76.98v9.81h-17.3v-.3c0-7.64,0-19.99,0-23.79h0v-3.37h6.53v.02c7.2-.02,14.39,0,21.56-.02h21.97c1.1.06,2.19.02,3.28,0,.3,0,.61,0,.92,0,16.68.02,33.34.02,50.01.02v-.02h7.1v13.8c.25,19.17.28,53.47.02,72.8Z"></path>
    <path class="cls-2" fill="#0B3752" d="m101.36,106.72h-2.7s2.52,0,2.52,0c.06,0,.12,0,.18,0Z"></path>
    <path class="cls-2" fill="#0B3752" d="m104.64,106.72c-1.1.02-2.18.06-3.28,0h3.28Z"></path>
    <path class="cls-2" fill="#0B3752" d="m51.31,190.98h-.02v-18.95c0,3.24,0,6.47,0,9.71,0,3.08,0,6.16.01,9.25Z"></path>
    <path class="cls-2" fill="#0B3752" d="m51.31,151.49c-.02,6.85-.02,13.69-.02,20.54v-20.54h.02Z"></path>
    <path class="cls-2" fill="#0B3752" d="m51.3,110.09c0,3.8,0,16.15,0,23.79v.3h0v-27.11h0v3.02h0Z"></path>
    <path class="cls-2" fill="#0B3752" d="m51.31,192.86h-.02v-11.12h0c0,3.08,0,6.16.01,9.25,0,.63,0,1.25,0,1.88Z"></path>
    <polygon class="cls-1" fill="#0B3752" points="81.35 106.71 81.35 100.15 36.01 100.15 36.01 134.18 81.7 134.18 81.7 124.36 98.65 124.36 98.65 151.49 18.71 151.49 18.71 82.85 98.65 82.85 98.65 106.71 81.35 106.71"></polygon>
  </g>
</svg>