<?xml version="1.0"?>

<svg version="1.1" id="Layer_1" xmlns="http://www.w3.org/2000/svg" xmlns:xlink="http://www.w3.org/1999/xlink" x="0px" y="0px" viewBox="120 530 780 270" style="" xml:space="preserve">

<g>
&#x9;<g id="Desktop">
&#x9;&#x9;<g id="SAUDI_MADE_arabic_horizontal_RGB" transform="translate(0.000000, -0.000000)">
&#x9;&#x9;&#x9;<polygon id="Fill-1" fill="#FFFFFF" points="146.6,229.6 162.2,229.6 162.2,215.1 146.6,215.1 &#x9;&#x9;&#x9;"></polygon>
&#x9;&#x9;&#x9;<g id="Group-5" transform="translate(0.000000, 0.015000)">
&#x9;&#x9;&#x9;&#x9;<polygon id="Fill-2" fill="#FFFFFF" points="170.2,229.6 185.8,229.6 185.8,215 170.2,215 &#x9;&#x9;&#x9;&#x9;"></polygon>
&#x9;&#x9;&#x9;&#x9;<path id="Fill-4" fill="#FFFFFF" d="M267.4,252c-8.3,0-15.1,2.9-20.5,8.6c-5.2,5.8-7.9,12.9-7.9,21c0,3.7,0.9,7.6,2.5,12h-36.6&#xA;&#x9;&#x9;&#x9;&#x9;&#x9;c-8.5,0-12.9-4.5-12.9-12.9v-39.6c-22.4,0-33.5,0-33.5,0.1c-16.6,0-26,12-26,30.8c0,17.4,9.6,30.4,24.8,30.4&#xA;&#x9;&#x9;&#x9;&#x9;&#x9;c8.6,0,14.7-2.7,17.8-7.5c4,10.3,11,15.4,21.1,15.4h96.1v-16.8h-29.1c-4.7-1.9-7.1-6.2-7.1-12.9c0-3.8,0.9-6.9,2.7-9.3&#xA;&#x9;&#x9;&#x9;&#x9;&#x9;c1.9-2.8,4.7-4.3,8.2-4.3c5.1,0,8.4,2.5,10,7.4l14.4-6.7C287.1,258,278.1,252,267.4,252 M162.1,288c-7.1,0-12-7.3-12-16.1&#xA;&#x9;&#x9;&#x9;&#x9;&#x9;c0-9.8,5.2-17.7,12.4-17.7H174v16.6C174,281.1,169.5,288,162.1,288"></path>
&#x9;&#x9;&#x9;</g>
&#x9;&#x9;&#x9;<polygon id="Fill-6" fill="#FFFFFF" points="458,244.1 473.7,244.1 473.7,229.6 458,229.6 &#x9;&#x9;&#x9;"></polygon>
&#x9;&#x9;&#x9;<path id="Fill-7" fill="#FFFFFF" d="M582.4,253.4c-14,0-28.7,8.5-39.9,23v-16.7h-17.6v21.9c0,9-3.1,12-8.9,12h-43&#xA;&#x9;&#x9;&#x9;&#x9;c1.4-3.9,2.1-8.1,2.1-12.7v-27.4h-17.7v28c0,8.1-3,12-8.9,12H338c-12.9,0-15.1-4.5-15.1-13v-51.1h-17.5v60.3&#xA;&#x9;&#x9;&#x9;&#x9;c0,12.9,7.8,20.7,21.2,20.7h289.8c0.4-3.9,0.6-7.8,0.6-11.6C617,270.6,604.9,253.4,582.4,253.4 M598.6,291.4l-0.1,2.3H547&#xA;&#x9;&#x9;&#x9;&#x9;c9.6-16.6,21.2-25,34.2-25C592.3,268.7,598.6,278.5,598.6,291.4"></path>
&#x9;&#x9;&#x9;<polygon id="Fill-8" fill="#FFFFFF" points="146.6,354.6 162.2,354.6 162.2,340 146.6,340 &#x9;&#x9;&#x9;"></polygon>
&#x9;&#x9;&#x9;<g id="Group-12" transform="translate(0.000000, 63.774000)">
&#x9;&#x9;&#x9;&#x9;<polygon id="Fill-9" fill="#FFFFFF" points="170.2,290.8 185.8,290.8 185.8,276.2 170.2,276.2 &#x9;&#x9;&#x9;&#x9;"></polygon>
&#x9;&#x9;&#x9;&#x9;<path id="Fill-11" fill="#FFFFFF" d="M157.4,363.8c8.6,0,14.7-2.7,17.8-7.5c4,10.3,11,15.4,21.1,15.4h29.1c7.3,0,13-2.5,17.2-7.6&#xA;&#x9;&#x9;&#x9;&#x9;&#x9;c3.7-4.4,5.5-9.9,5.5-16.6v-32.7h-17.5v27.7c0,8.2-3,12.3-8.9,12.3h-16.7c-8.5,0-12.9-4.5-12.9-12.9v-39.6&#xA;&#x9;&#x9;&#x9;&#x9;&#x9;c-22.4,0-33.5,0-33.5,0.1c-16.6,0-26,12-26,30.8C132.6,350.6,142.2,363.8,157.4,363.8 M150,333.1c0-9.8,5.2-17.7,12.4-17.7H174&#xA;&#x9;&#x9;&#x9;&#x9;&#x9;V332c0,10.3-4.5,17.2-11.9,17.2C155.1,349.2,150,341.9,150,333.1"></path>
&#x9;&#x9;&#x9;</g>
&#x9;&#x9;&#x9;<polygon id="Fill-13" fill="#FFFFFF" points="231.3,456.3 247,456.3 247,441.7 231.3,441.7 &#x9;&#x9;&#x9;"></polygon>
&#x9;&#x9;&#x9;<polygon id="Fill-14" fill="#FFFFFF" points="207.7,456.3 223.3,456.3 223.3,441.7 207.7,441.7 &#x9;&#x9;&#x9;"></polygon>
&#x9;&#x9;&#x9;<path id="Fill-15" fill="#FFFFFF" d="M273.6,393.2c22.3,0,31.9,7.8,31.9,25.3h-45.6v16.8h63.2v-17c0-19-8.9-31.5-26-37.5&#xA;&#x9;&#x9;&#x9;&#x9;c-4.7-1.7-12.4-2.4-23.5-2.4V393.2"></path>
&#x9;&#x9;&#x9;<g id="Group-19" transform="translate(103.233000, 0.000000)">
&#x9;&#x9;&#x9;&#x9;<path id="Fill-16" fill="#FFFFFF" d="M287.8,435.4h39.8c5.1,0,10.3-0.9,15.6-2.5c4.9-1.7,8.8-3.8,11.8-6.2&#xA;&#x9;&#x9;&#x9;&#x9;&#x9;c5.7,5.9,12.2,8.8,19.5,8.8h113.3c6.2,0,11.9-2.3,16.8-6.7c6.2-5.5,9.2-13.2,9.2-23v-27.3h-17.7v28.6c0,7.5-3,11.3-8.9,11.3&#xA;&#x9;&#x9;&#x9;&#x9;&#x9;h-11.3c1.4-3.8,2.1-8.1,2.1-12.7v-27.4h-17.5v28.7c0,7.5-3,11.3-8.9,11.3h-11.2c1.4-3.8,2.1-8.1,2.1-12.7v-27.4h-17.7v28&#xA;&#x9;&#x9;&#x9;&#x9;&#x9;c0,3.4-0.3,5.5-0.7,6.5c-1.4,3.7-4.1,5.5-8.2,5.5h-37.6c-4,0-7.2-1-9.5-3.1c4.5-2.8,9.3-7.1,14.4-12.9c4.7-5.4,7.8-9.9,9.2-13.3&#xA;&#x9;&#x9;&#x9;&#x9;&#x9;c-11.9-9.2-24.9-13.9-38.8-13.9c-11.7,0-23.3,3.4-34.8,10.2v14.4c4.9,0.9,10,3,15.3,6.2c4.4,2.8,7.7,5.4,9.5,8.1&#xA;&#x9;&#x9;&#x9;&#x9;&#x9;c-4.7,2.8-10.2,4.3-16.3,4.3H288v-11.5c0-16.7-11.8-28.7-27.9-28.7c-16.7,0-28.6,11.4-28.6,28.4c0,16.7,12,28.6,28.6,28.6&#xA;&#x9;&#x9;&#x9;&#x9;&#x9;c5.9,0,9.5-0.3,10.8-0.7c-1.4,4.9-5.4,7.4-12.2,7.4h-1.5v14h1.9C276.3,456.1,285.8,449.2,287.8,435.4 M349,398.3&#xA;&#x9;&#x9;&#x9;&#x9;&#x9;c-2.3-1.7-5.2-3.4-9-5c4.9-2.4,9.9-3.5,15-3.5c5.1,0,10.5,1.4,15.8,4.1c-1.1,1.9-3.1,3.9-5.8,6.2c-2.9,2.7-5.7,4.7-8.2,5.8&#xA;&#x9;&#x9;&#x9;&#x9;&#x9;C353.8,402.4,351.3,399.9,349,398.3 M270.5,418.6h-10.2c-6.5,0-10.8-5.4-10.8-12.6c0-6.6,3.5-11.8,10.2-11.8&#xA;&#x9;&#x9;&#x9;&#x9;&#x9;c6.4,0,10.8,4.8,10.8,12.2V418.6"></path>
&#x9;&#x9;&#x9;&#x9;<polygon id="Fill-18" fill="#FFFFFF" points="543.7,435.5 764.2,435.5 764.2,215 543.7,215 &#x9;&#x9;&#x9;&#x9;"></polygon>
&#x9;&#x9;&#x9;</g>
&#x9;&#x9;&#x9;<path id="Fill-20" fill="#31B469" d="M810.5,318.6c12,15.8,18.6,27.3,18.6,27.3c-4.1,7.2-8.7,14.9-13.8,23c0,0-7.3-12.4-20.6-29.7&#xA;&#x9;&#x9;&#x9;&#x9;c-6.6-8.7-23.7-28.2-23.9-28.5c0,0.4,0,85,0,93l0,0v0.1h-27.5c0.1-8,0-92.7,0-93.1c-0.3,0.3-17.3,19.7-23.9,28.5&#xA;&#x9;&#x9;&#x9;&#x9;c-13.1,17.4-20.6,29.7-20.6,29.7c-5-8.2-9.6-15.8-13.8-23c0,0,6.6-11.6,18.6-27.3c5.3-7,18.1-21.4,21.3-25.1&#xA;&#x9;&#x9;&#x9;&#x9;c-9.1,1.7-17.5,3.9-23.9,6c-6.1,2-10.7,4-13.8,5.4c-2.9,1.4-4.4,2.2-4.4,2.2c1.9-7.4,4-14.1,6.5-20c0,0,1.5-1,4.2-2.7&#xA;&#x9;&#x9;&#x9;&#x9;c2.8-1.7,7.2-3.9,12.9-6.2c6-2.4,13.5-4.8,22.1-6.6c-0.3-0.2-5.7-4.6-7.8-6c-9.9-6.4-13.8-4.3-13.8-4.3c5-3.6,9.9-6.4,14.9-8.4&#xA;&#x9;&#x9;&#x9;&#x9;c0,0,0.7-0.5,2.3-0.8c1.6-0.4,4.1-0.6,7.4,0.1c3.7,0.7,14.3,5.7,14.5,5.8c0-0.2,0.6-5,0.6-6.6c0.6-5,1.6-4.7,2.5-4.7h15.8&#xA;&#x9;&#x9;&#x9;&#x9;c0.8,0.1,1.9-0.2,2.5,4.7c0.2,1.7,0.6,6.4,0.6,6.6c0.2-0.1,10.8-5,14.5-5.8c3.3-0.6,5.8-0.5,7.4-0.1c1.5,0.4,2.3,0.8,2.3,0.8&#xA;&#x9;&#x9;&#x9;&#x9;c5,2,9.9,5,14.9,8.4c0,0-3.9-2-13.8,4.3c-2.1,1.4-7.6,5.8-7.8,6c8.6,1.7,16.2,4.1,22.1,6.6c5.7,2.3,10,4.6,12.9,6.2&#xA;&#x9;&#x9;&#x9;&#x9;c2.8,1.6,4.2,2.7,4.2,2.7c2.5,5.9,4.6,12.6,6.5,20c0,0-1.6-0.8-4.4-2.2c-3-1.5-7.7-3.4-13.8-5.4c-6.3-2.1-14.8-4.2-23.9-6&#xA;&#x9;&#x9;&#x9;&#x9;C792.4,297.2,805.3,311.7,810.5,318.6"></path>
&#x9;&#x9;</g>
&#x9;</g>
&#x9;<g id="Desktop_00000167386663804298677180000011890481276872214927_">
&#x9;&#x9;<g id="SAUDI_MADE_main_horizontal_RGB" transform="translate(0.000000, 0.000000)">
&#x9;&#x9;&#x9;<path id="Fill-1_00000116227133572256124780000008387121897428264078_" fill="#FFFFFF" d="M474,570c-3-2.5-6-4.2-9-5.4&#xA;&#x9;&#x9;&#x9;&#x9;c-3-1.2-5.9-1.7-8.7-1.7c-3.6,0-6.4,0.8-8.7,2.6c-2.2,1.7-3.4,3.9-3.4,6.6c0,1.8,0.6,3.4,1.7,4.7c1.1,1.2,2.6,2.3,4.4,3.1&#xA;&#x9;&#x9;&#x9;&#x9;c1.8,0.9,3.9,1.7,6.2,2.3c2.3,0.6,4.6,1.4,6.8,2.1c9,3,15.5,7,19.7,12c4.1,5,6.2,11.5,6.2,19.6c0,5.4-0.9,10.4-2.8,14.7&#xA;&#x9;&#x9;&#x9;&#x9;c-1.8,4.4-4.5,8.2-8,11.3c-3.5,3.1-7.8,5.5-12.9,7.3c-5.1,1.7-10.8,2.6-17.4,2.6c-13.4,0-25.8-3.9-37.2-11.9l11.8-22.1&#xA;&#x9;&#x9;&#x9;&#x9;c4.1,3.7,8.2,6.3,12.2,8.1c4,1.8,8,2.7,11.9,2.7c4.5,0,7.8-1,10-3.1c2.2-2,3.3-4.4,3.3-7c0-1.6-0.3-2.9-0.8-4.1&#xA;&#x9;&#x9;&#x9;&#x9;c-0.6-1.2-1.5-2.2-2.8-3.2c-1.3-1-3-1.8-5.1-2.8c-2.1-0.8-4.7-1.7-7.6-2.8c-3.6-1.1-7.1-2.4-10.5-3.7c-3.4-1.4-6.4-3.1-9.1-5.4&#xA;&#x9;&#x9;&#x9;&#x9;c-2.7-2.2-4.8-5-6.4-8.4c-1.7-3.4-2.5-7.7-2.5-12.9s0.8-10,2.6-14.2c1.7-4.2,4.1-7.9,7.3-10.9c3.1-3,7-5.4,11.5-7.1&#xA;&#x9;&#x9;&#x9;&#x9;c4.5-1.7,9.6-2.6,15.2-2.6c5.2,0,10.7,0.7,16.4,2.2c5.7,1.5,11.2,3.6,16.4,6.3L474,570"></path>
&#x9;&#x9;&#x9;<path id="Fill-2_00000004531488383469636370000006211694045105243318_" fill="#FFFFFF" d="M563.6,609.3L551.2,574l-12.4,35.3H563.6z&#xA;&#x9;&#x9;&#x9;&#x9; M571,630.2h-39.4l-6.3,18.5h-29.4l40.4-106.1h30.1l40.4,106.1h-29.4L571,630.2L571,630.2z"></path>
&#x9;&#x9;&#x9;<path id="Fill-3" fill="#FFFFFF" d="M642.1,542.6v57.7c0,3.1,0.1,6.2,0.4,9.5c0.2,3.2,0.9,6.2,2.1,8.8c1.2,2.7,3,4.8,5.5,6.4&#xA;&#x9;&#x9;&#x9;&#x9;c2.6,1.7,6.1,2.5,10.7,2.5c4.6,0,8.2-0.8,10.6-2.5c2.5-1.7,4.3-3.8,5.6-6.4c1.2-2.7,1.9-5.6,2.2-8.8c0.3-3.2,0.4-6.4,0.4-9.5&#xA;&#x9;&#x9;&#x9;&#x9;v-57.7h27.5v61.5c0,16.5-3.8,28.6-11.3,36.2c-7.5,7.6-19.2,11.4-34.9,11.4s-27.3-3.8-34.9-11.4c-7.6-7.6-11.4-19.6-11.4-36.2&#xA;&#x9;&#x9;&#x9;&#x9;v-61.5H642.1"></path>
&#x9;&#x9;&#x9;<path id="Fill-4_00000103984192123466401030000005736650989211195306_" fill="#FFFFFF" d="M756.8,625.3h6.3c4.8,0,9.1-0.7,12.8-2.3&#xA;&#x9;&#x9;&#x9;&#x9;c3.8-1.5,6.9-3.6,9.5-6.2c2.6-2.7,4.6-5.8,5.9-9.4c1.4-3.6,2-7.6,2-11.9c0-4.2-0.7-8.2-2.1-11.8c-1.4-3.7-3.4-6.8-6-9.5&#xA;&#x9;&#x9;&#x9;&#x9;c-2.6-2.7-5.8-4.7-9.5-6.2c-3.8-1.5-8-2.3-12.7-2.3h-6.3L756.8,625.3L756.8,625.3z M729.2,542.6h40.9c7.3,0,14,1.5,20.4,4.4&#xA;&#x9;&#x9;&#x9;&#x9;c6.3,2.9,11.8,6.8,16.6,11.6c4.8,4.9,8.4,10.5,11.2,16.9c2.8,6.4,4,13.1,4,20.2c0,7-1.4,13.7-4,20.1c-2.7,6.4-6.4,12-11.1,17&#xA;&#x9;&#x9;&#x9;&#x9;c-4.8,4.9-10.3,8.8-16.6,11.7c-6.3,2.9-13.1,4.3-20.5,4.3h-40.9L729.2,542.6L729.2,542.6z"></path>
&#x9;&#x9;&#x9;<g id="Group-12_00000070827005896666004710000012233525792109265567_" transform="translate(0.000000, 0.042000)">
&#x9;&#x9;&#x9;&#x9;<polygon id="Fill-5" fill="#FFFFFF" points="839.9,648.7 867.4,648.7 867.4,542.6 839.9,542.6 &#x9;&#x9;&#x9;&#x9;"></polygon>
&#x9;&#x9;&#x9;&#x9;<polyline id="Fill-7_00000088820705015087628630000013567386867515834543_" fill="#FFFFFF" points="498.4,679.2 477.3,735.5 &#xA;&#x9;&#x9;&#x9;&#x9;&#x9;456.1,679.2 428.9,679.2 410.9,784.9 438.3,784.9 447.5,724.1 471.2,784.9 482.1,784.9 507.1,724.1 516.3,784.9 543.6,784.9 &#xA;&#x9;&#x9;&#x9;&#x9;&#x9;525.6,679.2 498.4,679.2 &#x9;&#x9;&#x9;&#x9;"></polyline>
&#x9;&#x9;&#x9;&#x9;<path id="Fill-8_00000134232497282514929150000007806441821773620369_" fill="#FFFFFF" d="M599,679.2l-40.2,105.8H588l6.3-18.4&#xA;&#x9;&#x9;&#x9;&#x9;&#x9;h39.3l6.3,18.4h29.3L629,679.2H599z M614,710.5l12.3,35.3h-24.7L614,710.5L614,710.5z"></path>
&#x9;&#x9;&#x9;&#x9;<path id="Fill-9_00000010281286020966391410000003172630074168467370_" fill="#FFFFFF" d="M716.7,761.6h6.3c4.8,0,9-0.7,12.8-2.2&#xA;&#x9;&#x9;&#x9;&#x9;&#x9;c3.8-1.5,6.9-3.6,9.5-6.2c2.6-2.7,4.5-5.8,5.9-9.4s2-7.5,2-11.8c0-4.2-0.7-8.2-2.1-11.8c-1.4-3.7-3.4-6.8-6-9.4&#xA;&#x9;&#x9;&#x9;&#x9;&#x9;c-2.6-2.7-5.7-4.7-9.5-6.2c-3.8-1.5-8-2.2-12.6-2.2h-6.3V761.6z M689.1,679.2h40.7c7.2,0,14,1.5,20.3,4.3&#xA;&#x9;&#x9;&#x9;&#x9;&#x9;c6.3,2.9,11.8,6.8,16.5,11.6c4.7,4.8,8.4,10.5,11.1,16.8c2.8,6.4,4,13.1,4,20.1c0,6.9-1.3,13.6-3.9,20&#xA;&#x9;&#x9;&#x9;&#x9;&#x9;c-2.7,6.4-6.3,12-11.1,16.9c-4.7,4.9-10.3,8.7-16.5,11.7c-6.3,2.9-13.1,4.3-20.4,4.3h-40.7V679.2L689.1,679.2z"></path>
&#x9;&#x9;&#x9;&#x9;<polyline id="Fill-10" fill="#FFFFFF" points="807.3,679.2 807.3,784.9 867.4,784.9 867.4,761.6 834.7,761.6 834.7,743.4 &#xA;&#x9;&#x9;&#x9;&#x9;&#x9;865.6,743.4 865.6,720.1 834.7,720.1 834.7,702.5 867.4,702.5 867.4,679.2 807.3,679.2 &#x9;&#x9;&#x9;&#x9;"></polyline>
&#x9;&#x9;&#x9;&#x9;<polygon id="Fill-11_00000120539107552454241280000015328652885596342661_" fill="#FFFFFF" points="132.6,784.8 377.3,784.8 &#xA;&#x9;&#x9;&#x9;&#x9;&#x9;377.3,540.1 132.6,540.1 &#x9;&#x9;&#x9;&#x9;"></polygon>
&#x9;&#x9;&#x9;</g>
&#x9;&#x9;&#x9;<path id="Fill-13_00000157996527275707756950000007680009059108253312_" fill="#31B469" d="M314.1,655.1&#xA;&#x9;&#x9;&#x9;&#x9;c13.3,17.5,20.7,30.3,20.7,30.3c-4.6,8-9.6,16.4-15.2,25.5c0,0-8.2-13.7-22.9-33c-7.3-9.7-26.3-31.3-26.5-31.7&#xA;&#x9;&#x9;&#x9;&#x9;c0,0.5,0,94.5,0,103.3H270v0.1h-30.6c0.1-8.9,0-103,0-103.5c-0.3,0.3-19.2,21.9-26.5,31.7c-14.6,19.3-22.9,33-22.9,33&#xA;&#x9;&#x9;&#x9;&#x9;c-5.6-9.1-10.7-17.5-15.2-25.5c0,0,7.4-12.9,20.7-30.3c5.9-7.7,20.1-23.8,23.6-27.8c-10.1,1.8-19.5,4.2-26.4,6.6&#xA;&#x9;&#x9;&#x9;&#x9;c-6.8,2.2-11.9,4.4-15.3,6.1c-3.2,1.5-5,2.5-5,2.5c2.1-8.3,4.5-15.7,7.3-22.2c0,0,1.7-1.1,4.7-2.9c3.1-1.8,8-4.4,14.3-6.9&#xA;&#x9;&#x9;&#x9;&#x9;c6.7-2.7,15.1-5.3,24.6-7.3c-0.3-0.2-6.3-5-8.7-6.6c-11-7.1-15.3-4.8-15.3-4.8c5.5-3.9,11-7.2,16.4-9.5c0,0,0.8-0.5,2.5-0.9&#xA;&#x9;&#x9;&#x9;&#x9;c1.7-0.5,4.6-0.6,8.3,0.1c4.1,0.8,15.9,6.3,16.1,6.4c0-0.2,0.6-5.5,0.7-7.3c0.6-5.5,1.7-5.1,2.8-5.2h17.6&#xA;&#x9;&#x9;&#x9;&#x9;c0.9,0.1,2.2-0.3,2.8,5.2c0.2,1.8,0.7,7.2,0.7,7.3c0.2-0.1,12-5.6,16.1-6.4c3.7-0.7,6.4-0.5,8.3-0.1c1.7,0.4,2.5,0.9,2.5,0.9&#xA;&#x9;&#x9;&#x9;&#x9;c5.5,2.3,11,5.5,16.4,9.5c0,0-4.3-2.3-15.3,4.8c-2.4,1.6-8.4,6.4-8.7,6.6c9.5,1.9,17.9,4.6,24.6,7.3c6.3,2.6,11.1,5,14.3,6.9&#xA;&#x9;&#x9;&#x9;&#x9;c3,1.7,4.7,2.9,4.7,2.9c2.8,6.5,5.1,14,7.3,22.2c0,0-1.7-1-5-2.5c-3.4-1.6-8.5-3.8-15.3-6.1c-7-2.3-16.3-4.8-26.4-6.6&#xA;&#x9;&#x9;&#x9;&#x9;C294,631.3,308.2,647.4,314.1,655.1"></path>
&#x9;&#x9;</g>
&#x9;</g>
</g>
</svg>